<svg width="960" height="520" viewBox="0 0 960 520" fill="none" xmlns="http://www.w3.org/2000/svg">
  <defs>
    <linearGradient id="bgTerm" x1="20" y1="20" x2="940" y2="500" gradientUnits="userSpaceOnUse">
      <stop offset="0" stop-color="#EFF6FF"/>
      <stop offset="1" stop-color="#FFF0DD"/>
    </linearGradient>
  </defs>

  <rect x="20" y="20" width="920" height="480" rx="36" fill="url(#bgTerm)"/>

  <rect x="86" y="90" width="604" height="344" rx="28" fill="#0F1722"/>
  <rect x="86" y="90" width="604" height="54" rx="28" fill="#1D2735"/>
  <circle cx="124" cy="117" r="6" fill="#FF8A8A"/>
  <circle cx="144" cy="117" r="6" fill="#FFC77C"/>
  <circle cx="164" cy="117" r="6" fill="#8CDFAE"/>

  <text x="128" y="178" fill="#9FD0FF" font-size="14" font-family="Menlo, Monaco, Consolas, monospace">$ kosha roles --role embeddings</text>
  <text x="128" y="207" fill="#99F0B8" font-size="14" font-family="Menlo, Monaco, Consolas, monospace">openai  text-embedding-3-small</text>
  <text x="128" y="236" fill="#99F0B8" font-size="14" font-family="Menlo, Monaco, Consolas, monospace">google  text-embedding-004</text>

  <text x="128" y="282" fill="#FFD6A0" font-size="14" font-family="Menlo, Monaco, Consolas, monospace">$ kosha routes gpt-5.3-codex</text>
  <text x="128" y="311" fill="#D9E7FF" font-size="14" font-family="Menlo, Monaco, Consolas, monospace">* openai      https://api.openai.com  v5.3</text>
  <text x="128" y="340" fill="#C5D4EB" font-size="14" font-family="Menlo, Monaco, Consolas, monospace">  openrouter  https://openrouter.ai   v5.3</text>

  <rect x="706" y="128" width="184" height="184" rx="34" fill="#79C9FF"/>
  <circle cx="744" cy="212" r="9" fill="#0E3E63"/>
  <circle cx="850" cy="212" r="9" fill="#0E3E63"/>
  <path d="M740 244C753 262 841 262 854 244" stroke="#0E3E63" stroke-width="8" stroke-linecap="round"/>
  <rect x="774" y="172" width="44" height="10" rx="5" fill="#0E3E63"/>

  <text x="54" y="450" fill="#26415D" font-size="40" font-weight="700" font-family="Avenir Next, Segoe UI, Arial, sans-serif">Kosha Discovery</text>
  <text x="54" y="480" fill="#456786" font-size="18" font-family="Avenir Next, Segoe UI, Arial, sans-serif">Terminal-bot mascot variant</text>
</svg>
