<svg width="960" height="520" viewBox="0 0 960 520" fill="none" xmlns="http://www.w3.org/2000/svg">
  <defs>
    <linearGradient id="bgCarn" x1="24" y1="24" x2="936" y2="496" gradientUnits="userSpaceOnUse">
      <stop offset="0" stop-color="#FFF1DA"/>
      <stop offset="0.5" stop-color="#FFE1F2"/>
      <stop offset="1" stop-color="#DFF3FF"/>
    </linearGradient>
  </defs>

  <rect x="20" y="20" width="920" height="480" rx="36" fill="url(#bgCarn)"/>

  <circle cx="120" cy="100" r="15" fill="#FFC46B"/>
  <circle cx="170" cy="90" r="11" fill="#9DE7C3"/>
  <circle cx="820" cy="94" r="14" fill="#9ED5FF"/>
  <circle cx="874" cy="118" r="10" fill="#FFAFD4"/>

  <rect x="94" y="98" width="560" height="330" rx="26" fill="#FFFFFF" stroke="#EDD7FA" stroke-width="2"/>
  <rect x="94" y="98" width="560" height="56" rx="26" fill="#F6EBFF"/>
  <circle cx="132" cy="126" r="6" fill="#F58A8A"/>
  <circle cx="152" cy="126" r="6" fill="#F3C579"/>
  <circle cx="172" cy="126" r="6" fill="#84D9A5"/>

  <rect x="136" y="180" width="250" height="16" rx="8" fill="#E5CFF8"/>
  <rect x="136" y="210" width="330" height="11" rx="5.5" fill="#EFE1FB"/>
  <rect x="136" y="230" width="290" height="11" rx="5.5" fill="#EFE1FB"/>
  <rect x="136" y="250" width="400" height="11" rx="5.5" fill="#EFE1FB"/>

  <rect x="136" y="294" width="224" height="98" rx="16" fill="#FFF3D9" stroke="#F0D9AE"/>
  <text x="158" y="330" fill="#754D16" font-size="25" font-family="Menlo, Monaco, Consolas, monospace">kosha</text>
  <text x="158" y="356" fill="#8E6430" font-size="13" font-family="Menlo, Monaco, Consolas, monospace">carnival style</text>

  <rect x="378" y="294" width="236" height="98" rx="16" fill="#EDF8FF" stroke="#D1E8FA"/>
  <text x="396" y="325" fill="#265678" font-size="12" font-family="Menlo, Monaco, Consolas, monospace">route by roles + pricing</text>
  <text x="396" y="346" fill="#265678" font-size="12" font-family="Menlo, Monaco, Consolas, monospace">prefer direct provider</text>
  <text x="396" y="367" fill="#4F7695" font-size="11" font-family="Menlo, Monaco, Consolas, monospace">show URL + version</text>

  <g>
    <path d="M705 144H862C879 144 893 158 893 175V321C893 338 879 352 862 352H801L776 376V352H705C688 352 674 338 674 321V175C674 158 688 144 705 144Z" fill="#78CCFF"/>
    <circle cx="738" cy="226" r="10" fill="#0F4167"/>
    <circle cx="829" cy="226" r="10" fill="#0F4167"/>
    <path d="M733 266C748 286 819 286 834 266" stroke="#0F4167" stroke-width="8" stroke-linecap="round"/>
    <circle cx="733" cy="216" r="4" fill="#FFFFFF"/>
    <circle cx="824" cy="216" r="4" fill="#FFFFFF"/>
  </g>

  <text x="54" y="450" fill="#60307D" font-size="40" font-weight="700" font-family="Avenir Next, Segoe UI, Arial, sans-serif">Kosha Discovery</text>
  <text x="54" y="480" fill="#7A4B96" font-size="18" font-family="Avenir Next, Segoe UI, Arial, sans-serif">Colorful carnival mascot variant</text>
</svg>
