<svg width="960" height="520" viewBox="0 0 960 520" fill="none" xmlns="http://www.w3.org/2000/svg">
  <defs>
    <linearGradient id="bgPlay" x1="40" y1="30" x2="920" y2="490" gradientUnits="userSpaceOnUse">
      <stop offset="0" stop-color="#FFF8E8"/>
      <stop offset="0.45" stop-color="#FFE8F5"/>
      <stop offset="1" stop-color="#E6F4FF"/>
    </linearGradient>
    <linearGradient id="panelPlay" x1="170" y1="90" x2="760" y2="430" gradientUnits="userSpaceOnUse">
      <stop offset="0" stop-color="#FFFFFF"/>
      <stop offset="1" stop-color="#FFFDFE"/>
    </linearGradient>
    <filter id="shadowPlay" x="120" y="54" width="710" height="414" filterUnits="userSpaceOnUse" color-interpolation-filters="sRGB">
      <feFlood flood-opacity="0" result="BackgroundImageFix"/>
      <feColorMatrix in="SourceAlpha" type="matrix" values="0 0 0 0 0 0 0 0 0 0 0 0 0 0 0 0 0 0 127 0" result="hardAlpha"/>
      <feOffset dy="12"/>
      <feGaussianBlur stdDeviation="16"/>
      <feComposite in2="hardAlpha" operator="out"/>
      <feColorMatrix type="matrix" values="0 0 0 0 0.33 0 0 0 0 0.11 0 0 0 0 0.42 0 0 0 0.23 0"/>
      <feBlend mode="normal" in2="BackgroundImageFix" result="effect1_dropShadow_1_1"/>
      <feBlend mode="normal" in="SourceGraphic" in2="effect1_dropShadow_1_1" result="shape"/>
    </filter>
  </defs>

  <rect x="20" y="20" width="920" height="480" rx="40" fill="url(#bgPlay)"/>

  <circle cx="110" cy="110" r="18" fill="#FFD56F"/>
  <circle cx="860" cy="120" r="14" fill="#96E9C6"/>
  <circle cx="820" cy="410" r="20" fill="#9BD2FF"/>
  <circle cx="150" cy="420" r="16" fill="#FFB7D9"/>

  <g filter="url(#shadowPlay)">
    <rect x="160" y="86" width="630" height="350" rx="30" fill="url(#panelPlay)"/>
    <rect x="160" y="86" width="630" height="58" rx="30" fill="#F2E6FF"/>
    <circle cx="202" cy="115" r="7" fill="#FF8A80"/>
    <circle cx="226" cy="115" r="7" fill="#FFD180"/>
    <circle cx="250" cy="115" r="7" fill="#B9F6CA"/>

    <rect x="210" y="172" width="300" height="18" rx="9" fill="#E8D5FF"/>
    <rect x="210" y="208" width="350" height="13" rx="6.5" fill="#EEE7FA"/>
    <rect x="210" y="232" width="410" height="13" rx="6.5" fill="#EEE7FA"/>
    <rect x="210" y="256" width="290" height="13" rx="6.5" fill="#EEE7FA"/>

    <rect x="210" y="298" width="246" height="94" rx="20" fill="#FFF6E9" stroke="#F6DDB7"/>
    <text x="232" y="334" fill="#7B4A1E" font-size="25" font-family="Menlo, Monaco, Consolas, monospace">kosha</text>
    <text x="232" y="365" fill="#9A6A3B" font-size="14" font-family="Menlo, Monaco, Consolas, monospace">provider • model • roles</text>

    <path d="M560 304H708C720 304 730 314 730 326V357C730 369 720 379 708 379H623L608 392V379H560C548 379 538 369 538 357V326C538 314 548 304 560 304Z" fill="#EAF6FF" stroke="#CFE9FF"/>
    <text x="562" y="337" fill="#1B4E80" font-size="14" font-family="Menlo, Monaco, Consolas, monospace">cheapest: gpt-4o-mini</text>
    <text x="562" y="358" fill="#3970A5" font-size="12" font-family="Menlo, Monaco, Consolas, monospace">for embeddings</text>
  </g>

  <g>
    <path d="M790 210H868C883 210 895 222 895 237V308C895 323 883 335 868 335H827L808 353V335H790C775 335 763 323 763 308V237C763 222 775 210 790 210Z" fill="#74CCFF"/>
    <circle cx="808" cy="268" r="7" fill="#0F3F67"/>
    <circle cx="850" cy="268" r="7" fill="#0F3F67"/>
    <path d="M806 291C813 301 845 301 852 291" stroke="#0F3F67" stroke-width="5" stroke-linecap="round"/>
    <circle cx="800" cy="251" r="3" fill="#FFFFFF"/>
    <circle cx="842" cy="251" r="3" fill="#FFFFFF"/>
  </g>

  <text x="58" y="452" fill="#5A2C74" font-size="41" font-weight="700" font-family="Avenir Next, Segoe UI, Arial, sans-serif">Kosha Discovery</text>
  <text x="58" y="482" fill="#754397" font-size="18" font-family="Avenir Next, Segoe UI, Arial, sans-serif">Cute routing board for model selection and provider orchestration</text>
</svg>
